<svg width="196" height="196" viewBox="0 0 196 196" fill="none" xmlns="http://www.w3.org/2000/svg">
<g clip-path="url(#clip0_2_39)">
<rect width="196" height="196" fill="white"/>
<rect width="196" height="196" rx="16" fill="#D1FA66"/>
<path d="M98 15C139.764 15 174.322 45.8469 180.137 86H172.044C166.3 50.283 135.337 23 98 23C56.5786 23 23 56.5786 23 98C23 138.079 54.4383 170.815 94 172.894V140.813C72.1272 138.796 55 120.399 55 98C55 74.2518 74.2518 55 98 55C117.583 55 134.106 68.0917 139.301 86H130.888C125.99 72.5807 113.114 63 98 63C78.67 63 63 78.67 63 98C63 117.33 78.67 133 98 133C115.977 133 130.786 119.446 132.771 102H127V94H140.813C140.935 95.3171 141 96.6512 141 98C141 120.399 123.873 138.796 102 140.813V172.894C140.237 170.884 170.885 140.237 172.895 102H167V94H180.904C180.967 95.3254 181 96.659 181 98C181 143.84 143.84 181 98 181C52.1604 181 15 143.84 15 98C15 52.1604 52.1604 15 98 15Z" fill="#101B2B"/>
</g>
<defs>
<clipPath id="clip0_2_39">
<rect width="196" height="196" fill="white"/>
</clipPath>
</defs>
</svg>
